<?xml version="1.0" encoding="UTF-8"?>
<svg width="159px" height="50px" viewBox="0 0 159 50" version="1.1" xmlns="http://www.w3.org/2000/svg" xmlns:xlink="http://www.w3.org/1999/xlink">
    <!-- Generator: Sketch 52.2 (67145) - http://www.bohemiancoding.com/sketch -->
    <title>Artboard</title>
    <desc>Created with Sketch.</desc>
    <g id="Artboard" stroke="none" stroke-width="1" fill="none" fill-rule="evenodd">
        <path d="M153.980684,19.25371 C153.921969,11.851382 153.450739,6.0544099 152.869606,6.0544099 C152.29299,6.0544099 151.823265,11.6929587 151.755517,18.947425 C151.629053,18.9421442 151.517644,18.9210211 151.39118,18.9210211 C148.938678,17.7711321 133.407671,16.6238834 127.846258,16.0535596 C125.229654,11.8975887 118.853751,10.8916009 118.853751,10.8916009 C118.853751,10.8916009 118.415643,6.94158029 114.117366,7.30727405 C112.649479,7.43401267 99.0711394,8.16804056 94.822545,8.45188228 C90.5739506,8.74100478 78.731483,16.6384056 78.731483,16.6384056 L80.669095,14.1656821 C76.9459291,15.4673934 73.0767273,17.6285511 73.0767273,17.6285511 C73.0767273,17.6285511 46.3717068,18.1262643 35.1615601,16.3704062 C31.1538498,15.7406736 19.9828468,4.15861125 17.6718644,2.1505961 C15.3518488,0.143901151 14.5780084,0 12.4055344,0 C11.2116522,0 5.18954818,0 0,0 C2.66929763,5.55669674 8.1193018,16.9644935 9.779897,20.4141605 L14.3085193,20.5039337 L9.07380529,21.8399701 C8.46256173,22.2241466 7.93863868,22.7654261 8.53332146,23.33575 C14.842981,29.4139233 81.2125898,33.4299536 99.8269135,34.8465218 L100.382453,40.4850706 C98.151263,40.9537395 96.4575463,42.6277456 96.4575463,44.7268541 C96.4575463,47.1810948 98.7278795,49.1666667 101.526652,49.1666667 C104.322414,49.1666667 106.592747,47.1810948 106.592747,44.7268541 C106.592747,42.7386419 105.075177,41.1148032 103.014112,40.5471197 L103.134554,35.0801962 C103.363394,35.0933981 103.613311,35.1105607 103.813546,35.1237626 C112.105984,35.6003526 125.693356,34.9917432 135.288073,34.0227208 L135.896306,36.5086462 C134.678335,36.8413351 133.785558,37.7958353 133.785558,38.970808 C133.785558,40.4177407 135.12096,41.5953538 136.772522,41.5953538 C138.428601,41.5953538 139.765508,40.4164205 139.765508,38.970808 C139.765508,37.7258651 138.756805,36.7357195 137.424415,36.4690403 L136.612936,33.8827802 C140.768188,33.4312738 144.023135,32.9137578 145.504573,32.3922811 C148.562296,29.9446414 150.517974,25.7451041 151.147284,24.2440435 C151.227077,24.2440435 151.305365,24.2519646 151.388168,24.2519646 C151.511622,24.2519646 151.623031,24.2282011 151.743473,24.2255607 C151.770572,31.9975431 152.261374,38.2011349 152.866595,38.2011349 C153.477839,38.2011349 153.96864,31.8377996 153.986706,23.913995 C156.939043,23.2103315 159.058824,21.587813 159.058824,21.587813 C159.058824,21.587813 156.936032,19.9626542 153.980684,19.25371 Z M96.931787,19.0411587 C96.931787,20.0101812 96.1970903,20.3045844 95.4112057,20.3257075 C94.6795201,20.3441903 84.9493054,20.2148112 83.3143042,20.0735505 C81.6793029,19.9296493 83.0207266,17.5519798 83.534111,16.7545826 C84.0369567,15.9756682 84.4810868,15.4753146 86.2681462,15.2337191 C88.39696,14.947237 93.8605139,14.9683601 95.3284018,14.8231388 C96.7962896,14.681878 96.9905025,15.1637488 97.049218,16.2027415 C97.0733064,16.641046 96.931787,18.002166 96.931787,19.0411587 Z M103.530508,44.7268541 C103.530508,45.7011573 102.627192,46.4879929 101.525147,46.4879929 C100.420091,46.4879929 99.5167751,45.7011573 99.5167751,44.7268541 C99.5167751,43.7551913 100.420091,42.9683556 101.525147,42.9683556 C102.627192,42.9670354 103.530508,43.7538711 103.530508,44.7268541 Z M101.087039,20.5012933 C99.8660572,20.4524462 99.5288194,19.6576893 99.5288194,18.9804298 C99.5288194,18.2992097 99.5288194,16.8615184 99.5288194,15.8911757 C99.5288194,14.9208331 100.251472,14.5841836 101.299318,14.5841836 L113.561827,14.0891109 L114.267919,20.5580617 C114.266414,20.5580617 102.991529,20.5765444 101.087039,20.5012933 Z M126.833039,17.6641963 C124.056849,20.6399137 119.064525,20.4960126 117.593626,20.4960126 L116.526208,13.307556 C117.334676,13.2692704 117.960974,12.6395378 118.302729,11.8949484 L118.314773,11.9107907 L118.579746,11.9543571 C118.63545,11.9649186 124.654543,12.9629853 127.075429,16.80475 C127.075429,16.8034298 127.245553,17.2232515 126.833039,17.6641963 Z M136.772522,37.9318153 C137.431942,37.9318153 137.960382,38.399164 137.960382,38.970808 C137.960382,39.5424521 137.430437,40.0124412 136.772522,40.0124412 C136.122135,40.0124412 135.587673,39.5437723 135.587673,38.970808 C135.587673,38.3978438 136.122135,37.9318153 136.772522,37.9318153 Z" id="Shape" fill="#FFFFFF" fill-rule="nonzero"></path>
    </g>
</svg>