<?xml version="1.0" encoding="UTF-8"?>
<svg width="84px" height="72px" viewBox="0 0 84 72" version="1.1" xmlns="http://www.w3.org/2000/svg" xmlns:xlink="http://www.w3.org/1999/xlink">
    <!-- Generator: Sketch 52.2 (67145) - http://www.bohemiancoding.com/sketch -->
    <title>motor</title>
    <desc>Created with Sketch.</desc>
    <g id="motor" stroke="none" stroke-width="1" fill="none" fill-rule="evenodd">
        <g id="noun_Car-v-engine_1353158" fill="#FFFFFF">
            <path d="M27.4080189,5 L3,22.3389592 L18.6509434,44.8607595 L18.6509434,65.9690577 L24.6132075,72 C36.5377358,72 48.4622642,72 60.3867925,72 L66.3490566,65.9690577 L66.3490566,44.8607595 L82,22.3389592 L57.5919811,5 L48.7417453,17.721519 C44.5805828,17.721519 40.4194172,17.721519 36.2582547,17.721519 L27.4080189,5 Z M25.2653302,12.4444444 L27.0353774,14.8945148 L12.3160377,25.2601969 L10.6391509,22.8101266 L25.2653302,12.4444444 Z M59.7346698,12.4444444 L74.3608491,22.8101266 L72.6839623,25.2601969 L57.9646226,14.8945148 L59.7346698,12.4444444 Z M27.8738208,16.1195499 L35.6061321,27.2390999 L34.115566,28.2756681 C28.7137547,27.6816203 23.6741509,31.2338453 22.3773585,36.5682138 L20.8867925,37.604782 L13.2476415,26.4852321 L27.8738208,16.1195499 Z M57.1261792,16.1195499 L71.7523585,26.4852321 L64.1132075,37.604782 L62.6226415,36.5682138 C61.3258491,31.2338453 56.2862453,27.6816203 50.884434,28.2756681 L49.3938679,27.2390999 L57.1261792,16.1195499 Z M31.134434,29.8776371 C31.4236038,30.5591336 31.7418396,31.2474149 32.1591981,31.8565401 L40.3573113,43.6357243 C37.9455755,44.196602 35.8386604,45.6802138 34.4882075,47.7819972 L26.2900943,36.0028129 C25.8697547,35.3997187 25.4233302,34.8132096 24.8926887,34.3066104 C26.2580472,32.0088214 28.5378679,30.3902672 31.134434,29.8776371 Z M53.865566,29.8776371 C56.4621321,30.3902672 58.7419528,32.0088214 60.1073113,34.3066104 C59.5766698,34.8132096 59.1302453,35.3997187 58.7099057,36.0028129 L50.5117925,47.7819972 C49.1613396,45.6802138 47.0544245,44.196602 44.6426887,43.6357243 L52.8408019,31.8565401 C53.2581604,31.2474149 53.5763962,30.5591336 53.865566,29.8776371 Z M42.1273585,44.8607595 C42.38308,44.8571409 42.6351437,44.8607595 42.8726415,44.8607595 C43.4068932,44.8848833 43.9175283,45.006256 44.4563679,45.1434599 C48.7670849,46.2380759 51.4106038,50.6776034 50.3254717,55.0379747 C50.1466038,55.7556568 50.4871981,56.4416765 51.1639151,56.7341772 C52.4493375,57.2701079 54.0347781,57.9750195 54.9834906,58.5246132 C55.9322031,59.074207 55.851,59.9313305 55.3561321,60.5977496 C54.4498679,61.8190155 53.3028774,62.8819691 52.0955189,63.8016878 C49.2260928,65.9819066 45.8329534,66.9889835 42.5,67.0056259 C39.1670466,66.9890408 35.7739072,65.9819066 32.9044811,63.8016878 C31.6971226,62.8819691 30.5501321,61.8190155 29.6438679,60.5977496 C29.149,59.9313305 29.0677969,59.074207 30.0165094,58.5246132 C30.9652219,57.9750195 32.5506625,57.2701079 33.8360849,56.7341772 C34.5128019,56.4416765 34.8533962,55.7556568 34.6745283,55.0379747 C33.5893962,50.6776034 36.2329151,46.2380759 40.5436321,45.1434599 C41.0824717,45.006256 41.5931068,44.8848833 42.1273585,44.8607595 Z" id="Shape" fill-rule="nonzero"></path>
            <path d="M47,52.5 C47,50.016 44.987,48 42.5,48 C40.013,48 38,50.016 38,52.5 C38,54.984 40.013,57 42.5,57 C44.987,57 47,54.984 47,52.5 Z" id="Path"></path>
            <polygon id="Path" points="65.1817238 0 84 12.9714567 84 18.9980315 82.5750548 21 58 4.06299213 59.4279451 2.06102362"></polygon>
            <path d="M25,26 C25,24.341 23.88,23 22.5,23 C21.12,23 20,24.341 20,26 C20,27.656 21.12,29 22.5,29 C23.88,29 25,27.656 25,26 Z" id="Path"></path>
            <path d="M64,26 C64,24.341 62.88,23 61.5,23 C60.12,23 59,24.341 59,26 C59,27.656 60.12,29 61.5,29 C62.88,29 64,27.656 64,26 Z" id="Path"></path>
            <polygon id="Path" points="18.8182762 0 0 12.9714567 0 18.9980315 1.42494519 21 26 4.06299213 24.5720549 2.06102362"></polygon>
            <path d="M47,52.5 C47,50.016 44.987,48 42.5,48 C40.013,48 38,50.016 38,52.5 C38,54.984 40.013,57 42.5,57 C44.987,57 47,54.984 47,52.5 Z" id="Path"></path>
        </g>
    </g>
</svg>