<?xml version="1.0" encoding="UTF-8"?>
<svg width="97px" height="69px" viewBox="0 0 97 69" version="1.1" xmlns="http://www.w3.org/2000/svg" xmlns:xlink="http://www.w3.org/1999/xlink">
    <!-- Generator: Sketch 52.2 (67145) - http://www.bohemiancoding.com/sketch -->
    <title>wheels</title>
    <desc>Created with Sketch.</desc>
    <g id="wheels" stroke="none" stroke-width="1" fill="none" fill-rule="evenodd">
        <g id="noun_Airplane-Wheels_50418" transform="translate(0.000000, -1.000000)">
            <path d="M15.1439753,39.8939655 C6.90855556,39.8939655 0.232320988,46.6212069 0.232320988,54.9222414 C0.232320988,63.2232759 6.90855556,69.9493103 15.1439753,69.9493103 C23.3793951,69.9493103 30.0556296,63.2232759 30.0556296,54.9222414 C30.0556296,46.6212069 23.3793951,39.8939655 15.1439753,39.8939655 Z M15.1439753,63.3487931 C10.5286914,63.3487931 6.78161728,59.5796552 6.78161728,54.9222414 C6.78161728,50.2648276 10.5274938,46.4932759 15.1439753,46.4932759 C19.7592593,46.4932759 23.5051358,50.2648276 23.5051358,54.9222414 C23.5051358,59.5796552 19.7592593,63.3487931 15.1439753,63.3487931 Z" id="Shape" fill="#FFFFFF" fill-rule="nonzero"></path>
            <path d="M48.2664815,39.8939655 C40.0298642,39.8939655 33.3548272,46.6212069 33.3548272,54.9222414 C33.3548272,63.2232759 40.0298642,69.9493103 48.2664815,69.9493103 C56.5030988,69.9493103 63.1769383,63.2232759 63.1769383,54.9222414 C63.1769383,46.6212069 56.5030988,39.8939655 48.2664815,39.8939655 Z M48.2664815,63.3487931 C43.6511975,63.3487931 39.9041235,59.5796552 39.9041235,54.9222414 C39.9041235,50.2648276 43.6511975,46.4932759 48.2664815,46.4932759 C52.8817654,46.4932759 56.6288395,50.2648276 56.6288395,54.9222414 C56.6288395,59.5796552 52.8817654,63.3487931 48.2664815,63.3487931 Z" id="Shape" fill="#FFFFFF" fill-rule="nonzero"></path>
            <path d="M81.3853951,39.8939655 C73.1523704,39.8939655 66.4749383,46.6212069 66.4749383,54.9222414 C66.4749383,63.2232759 73.1523704,69.9493103 81.3853951,69.9493103 C89.6232099,69.9493103 96.2982469,63.2232759 96.2982469,54.9222414 C96.2982469,46.6212069 89.6232099,39.8939655 81.3853951,39.8939655 Z M81.3853951,63.3487931 C76.7701111,63.3487931 73.0254321,59.5796552 73.0254321,54.9222414 C73.0254321,50.2648276 76.7701111,46.4932759 81.3853951,46.4932759 C86.0030741,46.4932759 89.7489506,50.2648276 89.7489506,54.9222414 C89.7489506,59.5796552 86.0030741,63.3487931 81.3853951,63.3487931 Z" id="Shape" fill="#FFFFFF" fill-rule="nonzero"></path>
            <path d="M34.0050864,47.4744828 L29.4053704,47.4744828 C30.0508395,49.6758621 30.4460247,52.1958621 30.4460247,54.9222414 C30.4460247,57.6474138 30.049642,60.1674138 29.4053704,62.3687931 L34.0050864,62.3687931 C33.3596173,60.1674138 32.9632346,57.6474138 32.9632346,54.9222414 C32.9632346,52.1958621 33.3596173,49.6758621 34.0050864,47.4744828 Z" id="Path" fill="#FFFFFF"></path>
            <path d="M67.124,47.4744828 L62.5278765,47.4744828 C63.1697531,49.6758621 63.5673333,52.1958621 63.5673333,54.9222414 C63.5673333,57.6474138 63.1697531,60.1674138 62.5278765,62.3687931 L67.124,62.3687931 C66.4785309,60.1674138 66.0821481,57.6474138 66.0821481,54.9222414 C66.0821481,52.1958621 66.4785309,49.6758621 67.124,47.4744828 Z" id="Path" fill="#FFFFFF"></path>
            <polygon id="Rectangle" fill="#FFFFFF" transform="translate(61.343762, 13.124202) rotate(19.438764) translate(-61.343762, -13.124202) " points="55.4693695 2.45727337 67.1662246 2.48595732 67.2181549 23.7911301 55.5212999 23.7624462"></polygon>
            <polygon id="Rectangle" fill="#FFFFFF" transform="translate(56.324203, 27.454304) rotate(19.433360) translate(-56.324203, -27.454304) " points="50.4671777 23.584952 62.1624396 23.6136254 62.181228 31.3236551 50.4859661 31.2949817"></polygon>
            <path d="M55.4301111,40.6494828 L58.0802469,33.0846552 L51.2387531,30.6539655 L48.2640864,39.1481034 C48.4868272,39.1384483 48.6951975,39.0805172 48.9191358,39.0805172 C51.2674938,39.0805172 53.4565802,39.6755172 55.4301111,40.6494828 Z" id="Path" fill="#FFFFFF"></path>
            <polygon id="Rectangle" fill="#FFFFFF" transform="translate(64.059531, 33.162973) rotate(-35.993253) translate(-64.059531, -33.162973) " points="62.0007187 25.5610336 66.1746511 25.5455536 66.1183425 40.7649133 61.9444102 40.7803933"></polygon>
            <polygon id="Rectangle" fill="#FFFFFF" transform="translate(70.117128, 41.566613) rotate(-35.894681) translate(-70.117128, -41.566613) " points="69.160588 39.4956373 71.0890023 39.4884933 71.0736689 43.6375885 69.1452546 43.6447326"></polygon>
            <polygon id="Rectangle" fill="#FFFFFF" transform="translate(43.437934, 28.610768) rotate(-114.917204) translate(-43.437934, -28.610768) " points="42.3266518 19.2923975 44.4936208 19.2988317 44.5492161 37.9291379 42.3822471 37.9227038"></polygon>
            <polygon id="Rectangle" fill="#FFFFFF" transform="translate(38.611893, 38.070635) rotate(-24.878785) translate(-38.611893, -38.070635) " points="37.5571778 30.60317 39.7109207 30.5967502 39.6666077 45.5380997 37.5128648 45.5445195"></polygon>
            <ellipse id="Oval" fill="#FFFFFF" cx="36.2803951" cy="32.2048276" rx="2.27530864" ry="2.29310345"></ellipse>
            <ellipse id="Oval" fill="#FFFFFF" cx="36.2815926" cy="32.2048276" rx="1" ry="1"></ellipse>
            <path d="M24.9637284,46.5186207 C24.9637284,46.5186207 39.1448889,47.2584483 43.4392346,28.6118966 C43.4392346,28.6118966 47.6329877,9.8687931 58.0802469,7.12189655" id="Path" stroke="#FFFFFF" stroke-width="0.9"></path>
            <path d="M23.5530332,45.3117241 C23.5530332,45.3117241 23.4716049,24.7860345 46.9875185,18.5934483 C46.9875185,18.5934483 58.6323086,15.8525862 61.342321,11.1831034" id="Path" stroke="#FFFFFF" stroke-width="0.9"></path>
            <path d="M40.8765185,43.8187931 C40.8765185,43.8187931 22.0034321,35.4018966 36.2791975,27.4544828 C36.2791975,27.4544828 43.4440247,22.8912069 51.4231728,23.6756897" id="Path" stroke="#FFFFFF" stroke-width="0.9"></path>
            <path d="M48.2640864,59.2634483 C50.6437246,59.2634483 52.5728025,57.3192834 52.5728025,54.9210345 C52.5728025,52.5227856 50.6437246,50.5786207 48.2640864,50.5786207 C45.8844483,50.5786207 43.9553704,52.5227856 43.9553704,54.9210345 C43.9553704,57.3192834 45.8844483,59.2634483 48.2640864,59.2634483 Z" id="Oval" stroke="#FFFFFF" stroke-width="1.2" fill="#FFFFFF" stroke-linecap="round" stroke-dasharray="0,3.010560035705566"></path>
            <path d="M15.1439753,59.2634483 C17.5236135,59.2634483 19.4526914,57.3192834 19.4526914,54.9210345 C19.4526914,52.5227856 17.5236135,50.5786207 15.1439753,50.5786207 C12.7643371,50.5786207 10.8352593,52.5227856 10.8352593,54.9210345 C10.8352593,57.3192834 12.7643371,59.2634483 15.1439753,59.2634483 Z" id="Oval" stroke="#FFFFFF" stroke-width="1.2" fill="#FFFFFF" stroke-linecap="round" stroke-dasharray="0,3.010560035705566"></path>
            <path d="M81.3877901,59.2646552 C83.7680897,59.2646552 85.6977037,57.3199499 85.6977037,54.9210345 C85.6977037,52.522119 83.7680897,50.5774138 81.3877901,50.5774138 C79.0074906,50.5774138 77.0778765,52.522119 77.0778765,54.9210345 C77.0778765,57.3199499 79.0074906,59.2646552 81.3877901,59.2646552 Z" id="Oval" stroke="#FFFFFF" stroke-width="1.2" fill="#FFFFFF" stroke-linecap="round" stroke-dasharray="0,3.010560035705566"></path>
        </g>
    </g>
</svg>